<?xml version="1.0" encoding="utf-8"?>
<!-- Generator: Adobe Illustrator 26.3.1, SVG Export Plug-In . SVG Version: 6.00 Build 0)  -->
<svg version="1.1" id="Capa_1" xmlns="http://www.w3.org/2000/svg" xmlns:xlink="http://www.w3.org/1999/xlink" x="0px" y="0px"
	 viewBox="0 0 1080 1080" style="enable-background:new 0 0 1080 1080;" xml:space="preserve">
<style type="text/css">
	.st0{fill:url(#SVGID_1_);}
	.st1{fill:url(#SVGID_00000037662853339245142780000001345727211919537061_);}
	.st2{fill:url(#SVGID_00000025420743672669582080000014626286649533968290_);}
	.st3{fill:#FFFFFF;}
</style>
<linearGradient id="SVGID_1_" gradientUnits="userSpaceOnUse" x1="1100" y1="540" x2="2180" y2="540">
	<stop  offset="0" style="stop-color:#FFFFFF"/>
	<stop  offset="0.4735" style="stop-color:#FFFFFF"/>
	<stop  offset="1" style="stop-color:#FFFFFF"/>
</linearGradient>
<rect x="1100" class="st0" width="1080" height="1080"/>
<g>
	<path d="M231.59,620.29c-0.36,2.98-1.61,5.41-3.75,7.32c-2.14,1.9-4.46,3.12-6.96,3.66c-2.5,0.54-4.79,0.27-6.87-0.8
		c-2.08-1.07-3.19-3.21-3.3-6.42c-0.6-13.68-0.89-27.87-0.89-42.57c0-14.7,0-29.3,0-43.82c-1.9-0.71-3.33-1.79-4.28-3.21
		c-0.95-1.43-1.52-3-1.7-4.73c-0.18-1.72,0.03-3.48,0.62-5.27c0.59-1.79,1.49-3.33,2.68-4.64c1.31-1.43,3.09-2.74,5.35-3.93
		c2.26-1.19,4.73-2.29,7.41-3.3c2.68-1.01,5.32-1.87,7.94-2.59c2.62-0.71,4.82-1.25,6.6-1.61c7.5-1.55,15.05-1.52,22.67,0.09
		c7.61,1.61,14.31,4.49,20.08,8.66c5.77,4.17,10.08,9.58,12.94,16.24c2.86,6.67,3.15,14.28,0.89,22.85
		c-0.71,2.38-1.61,4.76-2.68,7.14c-1.07,2.38-2.32,4.58-3.75,6.6c-2.02,3.1-4.4,5.83-7.14,8.21c-2.74,2.38-5.71,4.58-8.92,6.6
		c2.26,2.38,4.4,4.88,6.43,7.5c2.02,2.62,4.28,5,6.78,7.14c0.95,0.83,2.35,2.14,4.19,3.93c1.84,1.78,3.63,3.69,5.35,5.71
		c1.72,2.03,3.24,4.02,4.55,5.98c1.31,1.96,1.9,3.6,1.79,4.91c-0.12,2.26-0.74,4.31-1.87,6.16c-1.13,1.84-2.5,3.27-4.1,4.28
		c-1.61,1.01-3.36,1.52-5.27,1.52c-1.9,0-3.81-0.66-5.71-1.96c-2.14-1.67-4.17-3.63-6.07-5.89c-1.9-2.26-3.75-4.34-5.53-6.25
		c-3.93-4.28-7.76-8.6-11.51-12.94c-3.75-4.34-7.59-8.59-11.51-12.76c-2.38,0.48-4.79,0.8-7.23,0.98c-2.44,0.18-4.85,0.39-7.23,0.62
		v25.35V620.29z M263.54,533.9c-4.76-2.86-9.97-4.46-15.62-4.82c-5.65-0.36-11.1,0.42-16.33,2.32v40.34
		c5.35-0.36,10.62-1.04,15.8-2.05c5.18-1.01,9.96-3.24,14.37-6.69c2.38-1.9,4.31-4.13,5.8-6.69c1.49-2.56,2.38-5.18,2.68-7.85
		c0.3-2.68-0.06-5.29-1.07-7.85C268.15,538.04,266.28,535.81,263.54,533.9z"/>
	<path d="M377.06,600.84c2.86-0.71,5.38-0.74,7.59-0.09c2.2,0.66,3.9,1.76,5.09,3.3c1.19,1.55,1.72,3.45,1.61,5.71
		c-0.12,2.26-1.13,4.64-3.03,7.14c-1.55,2.03-3.69,3.75-6.43,5.18c-2.74,1.43-5.3,2.56-7.67,3.39c-5.83,2.14-11.36,3.63-16.6,4.46
		c-5.24,0.83-10.15,0.83-14.73,0c-4.58-0.83-8.87-2.56-12.85-5.18c-3.99-2.62-7.71-6.31-11.16-11.07
		c-2.38-3.21-4.14-6.87-5.27-10.98c-1.13-4.11-1.76-8.3-1.87-12.58c-0.12-4.28,0.24-8.51,1.07-12.67c0.83-4.16,2.02-7.91,3.57-11.25
		c2.02-4.16,5.23-7.97,9.64-11.42c4.4-3.45,9.28-6.19,14.64-8.21c5.35-2.02,10.83-3.18,16.42-3.48c5.59-0.3,10.53,0.57,14.81,2.59
		c3.57,1.67,6.63,4.08,9.19,7.23c2.56,3.15,4.31,6.58,5.27,10.26c0.95,3.69,1.04,7.41,0.27,11.16c-0.78,3.75-2.71,7.17-5.8,10.26
		c-2.98,2.98-6.25,5.39-9.82,7.23c-3.57,1.85-7.26,3.45-11.07,4.82c-3.81,1.37-7.71,2.53-11.69,3.48
		c-3.99,0.95-7.83,2.02-11.51,3.21c2.5,2.86,5.35,4.67,8.57,5.44c3.21,0.78,6.57,0.92,10.08,0.45c3.51-0.47,7.05-1.46,10.62-2.95
		c3.57-1.49,6.9-3.12,10-4.91L377.06,600.84z M341.01,570.14c-2.74,1.55-4.76,3.48-6.07,5.8c-1.31,2.32-2.26,5.56-2.86,9.73
		c3.09-0.95,6.57-1.96,10.44-3.03c3.87-1.07,7.52-2.2,10.98-3.39c3.45-1.19,6.36-2.5,8.75-3.93c2.38-1.43,3.57-2.97,3.57-4.64
		c0-0.95-0.15-1.87-0.45-2.77c-0.3-0.89-0.92-1.52-1.87-1.87c-3.33-1.19-6.78-1.43-10.35-0.71s-6.55,1.73-8.92,3.03L341.01,570.14z"
		/>
	<path d="M611.95,610.83c1.07,1.55,1.7,3.36,1.87,5.44c0.18,2.08-0.06,4.05-0.71,5.89c-0.66,1.85-1.73,3.36-3.21,4.55
		c-1.49,1.19-3.42,1.72-5.8,1.61c-3.1-0.24-5.59-1.31-7.5-3.21c-1.9-1.9-3.69-4.04-5.35-6.43c-4.64,3.81-9.43,6.45-14.37,7.94
		c-4.94,1.49-9.79,1.81-14.55,0.98c-4.76-0.83-9.22-2.83-13.39-5.98c-4.17-3.15-7.68-7.41-10.53-12.76c-2.62-5-4.08-10.53-4.37-16.6
		c-0.3-6.07-0.39-11.84-0.27-17.31c0-1.9,0.06-3.78,0.18-5.62c0.12-1.84,0.24-3.78,0.36-5.8c0.12-1.55,0.18-3.06,0.18-4.55
		c0-1.49,0.09-2.88,0.27-4.19c0.18-1.31,0.54-2.62,1.07-3.93c0.54-1.31,1.34-2.56,2.41-3.75c1.43-1.54,3.15-2.47,5.18-2.77
		c2.02-0.3,3.95-0.09,5.8,0.62c1.84,0.71,3.45,1.82,4.82,3.3c1.37,1.49,2.11,3.3,2.23,5.44c0.24,6.07,0.09,12.2-0.45,18.38
		c-0.54,6.19-0.51,12.26,0.09,18.21c0.24,2.86,0.98,5.77,2.23,8.75c1.25,2.98,3.24,5.12,5.98,6.42c2.74,1.19,5.5,1.1,8.3-0.27
		c2.79-1.37,5.09-3,6.87-4.91c0.83-0.95,1.63-1.99,2.41-3.12c0.77-1.13,1.63-2.11,2.59-2.95c-0.48-4.16-0.77-8.33-0.89-12.49
		c-0.12-4.16-0.12-8.33,0-12.49c0-2.26,0.09-4.73,0.27-7.41s0.65-5.24,1.43-7.67c0.77-2.44,1.93-4.58,3.48-6.43
		c1.55-1.84,3.75-3,6.6-3.48c1.31-0.24,2.59-0.12,3.84,0.36c1.25,0.48,2.35,1.13,3.3,1.96c1.67,1.43,2.79,3.03,3.39,4.82
		c0.59,1.78,0.89,3.69,0.89,5.71c0,2.02-0.15,4.08-0.45,6.16c-0.3,2.08-0.51,4.02-0.62,5.8c-0.24,3.33-0.42,6.84-0.54,10.53
		c-0.12,3.69,0,7.38,0.36,11.07c0.36,3.69,1.04,7.26,2.05,10.71C608.4,604.82,609.92,607.98,611.95,610.83z"/>
	<path d="M701.54,616.9c0.95,3.45,0.77,6.31-0.54,8.57c-1.31,2.26-3.12,3.78-5.44,4.55c-2.32,0.77-4.85,0.68-7.59-0.27
		c-2.74-0.95-5.12-2.86-7.14-5.71c-3.33,2.5-6.58,4.25-9.73,5.26c-3.15,1.01-6.75,1.58-10.8,1.7c-6.07,0.24-11.48-0.45-16.24-2.05
		c-4.76-1.61-8.78-4.02-12.05-7.23c-3.27-3.21-5.68-7.23-7.23-12.05c-1.55-4.82-2.08-10.38-1.61-16.69
		c0.24-2.62,0.68-5.18,1.34-7.67c0.65-2.5,1.4-4.94,2.23-7.32c0.95-2.62,2.29-5.41,4.02-8.39c1.72-2.97,3.48-5.53,5.27-7.68
		c6.43-7.85,14.46-13.5,24.1-16.96c1.67-0.59,3.93-1.13,6.78-1.61c2.86-0.47,5.74-0.68,8.66-0.62c2.91,0.06,5.71,0.45,8.39,1.16
		c2.68,0.71,4.67,1.96,5.98,3.75c1.07,1.43,1.84,2.68,2.32,3.75c0.47,1.07,0.74,2.2,0.8,3.39c0.06,1.19,0.06,2.47,0,3.84
		c-0.06,1.37-0.09,3.07-0.09,5.09c0,3.33-0.03,6.58-0.09,9.73c-0.06,3.15-0.03,6.34,0.09,9.55c0,1.07,0,2.47,0,4.19
		c0,1.73,0.06,3.54,0.18,5.44c0.12,1.91,0.27,3.72,0.45,5.44c0.18,1.73,0.45,3.12,0.8,4.19L701.54,616.9z M663.71,608.87
		c1.31-0.83,2.79-1.75,4.46-2.77c1.67-1.01,3.15-2.17,4.46-3.48c-1.07-6.3-1.7-12.61-1.87-18.92c-0.18-6.3-0.15-12.67,0.09-19.1
		c-5.35,0.95-10.17,3.27-14.46,6.96c-4.28,3.69-7.26,8.03-8.92,13.03c-0.71,2.03-1.31,4.11-1.78,6.25
		c-0.48,2.14-0.66,4.22-0.54,6.25c0.12,2.74,0.83,5.03,2.14,6.87c1.31,1.85,2.88,3.24,4.73,4.19c1.84,0.95,3.81,1.49,5.89,1.61
		C659.98,609.88,661.92,609.58,663.71,608.87z"/>
	<path d="M715.64,551.4c0.83-2.86,2.17-5.03,4.02-6.51c1.84-1.49,3.81-2.35,5.89-2.59c2.08-0.24,4.07,0.12,5.98,1.07
		c1.9,0.95,3.39,2.44,4.46,4.46c1.31-0.71,2.62-1.37,3.93-1.96c1.31-0.59,2.79-1.13,4.46-1.61c7.61-2.02,14.37-1.87,20.26,0.45
		c5.89,2.32,10.8,5.89,14.73,10.71s6.72,10.47,8.39,16.96c1.67,6.49,2.05,12.97,1.16,19.46c-0.89,6.49-3.18,12.56-6.87,18.21
		c-3.69,5.65-8.99,10.03-15.89,13.12c-4.52,2.02-9.25,3.3-14.19,3.84c-4.94,0.54-9.85,0.62-14.73,0.27c0,0.12,0.03,1.07,0.09,2.86
		c0.06,1.79,0.09,4.04,0.09,6.78c0,2.74,0,5.71,0,8.92s-0.09,6.31-0.27,9.28c-0.18,2.97-0.42,5.62-0.71,7.94
		c-0.3,2.32-0.74,3.9-1.34,4.73c-1.55,2.26-3.45,3.69-5.71,4.28c-2.26,0.59-4.4,0.51-6.43-0.27c-2.02-0.78-3.78-2.08-5.27-3.93
		c-1.49-1.85-2.23-4.08-2.23-6.69v-108.7L715.64,551.4z M738.49,574.6c-0.36,0.6-0.54,0.86-0.54,0.8c0-0.06-0.24,0.15-0.71,0.62
		v29.45c2.38,0.36,4.76,0.54,7.14,0.54c2.38,0,4.88-0.36,7.5-1.07c5.35-1.31,9.58-3.9,12.67-7.76c3.09-3.87,4.28-8.66,3.57-14.37
		c-0.36-2.38-1.04-4.85-2.05-7.41c-1.01-2.56-2.35-4.73-4.02-6.52c-1.67-1.79-3.63-3.03-5.89-3.75c-2.26-0.71-4.82-0.47-7.67,0.71
		c-2.02,0.83-3.84,2.08-5.44,3.75C741.43,571.27,739.92,572.93,738.49,574.6z"/>
	<path d="M804.53,551.4c0.83-2.86,2.17-5.03,4.02-6.51c1.84-1.49,3.81-2.35,5.89-2.59c2.08-0.24,4.07,0.12,5.98,1.07
		c1.9,0.95,3.39,2.44,4.46,4.46c1.31-0.71,2.62-1.37,3.93-1.96c1.31-0.59,2.79-1.13,4.46-1.61c7.61-2.02,14.37-1.87,20.26,0.45
		c5.89,2.32,10.8,5.89,14.73,10.71s6.72,10.47,8.39,16.96c1.67,6.49,2.05,12.97,1.16,19.46c-0.89,6.49-3.18,12.56-6.87,18.21
		c-3.69,5.65-8.99,10.03-15.89,13.12c-4.52,2.02-9.25,3.3-14.19,3.84c-4.94,0.54-9.85,0.62-14.73,0.27c0,0.12,0.03,1.07,0.09,2.86
		c0.06,1.79,0.09,4.04,0.09,6.78c0,2.74,0,5.71,0,8.92s-0.09,6.31-0.27,9.28c-0.18,2.97-0.42,5.62-0.71,7.94
		c-0.3,2.32-0.74,3.9-1.34,4.73c-1.55,2.26-3.45,3.69-5.71,4.28c-2.26,0.59-4.4,0.51-6.43-0.27c-2.02-0.78-3.78-2.08-5.27-3.93
		c-1.49-1.85-2.23-4.08-2.23-6.69v-108.7L804.53,551.4z M827.37,574.6c-0.36,0.6-0.54,0.86-0.54,0.8c0-0.06-0.24,0.15-0.71,0.62
		v29.45c2.38,0.36,4.76,0.54,7.14,0.54c2.38,0,4.88-0.36,7.5-1.07c5.35-1.31,9.58-3.9,12.67-7.76c3.09-3.87,4.28-8.66,3.57-14.37
		c-0.36-2.38-1.04-4.85-2.05-7.41c-1.01-2.56-2.35-4.73-4.02-6.52c-1.67-1.79-3.63-3.03-5.89-3.75c-2.26-0.71-4.82-0.47-7.67,0.71
		c-2.02,0.83-3.84,2.08-5.44,3.75C830.32,571.27,828.8,572.93,827.37,574.6z"/>
</g>
<linearGradient id="SVGID_00000106836436279066791210000001192564525995023018_" gradientUnits="userSpaceOnUse" x1="405.7439" y1="578.9712" x2="516.0983" y2="578.9712">
	<stop  offset="0" style="stop-color:#FFFFFF"/>
	<stop  offset="0.4735" style="stop-color:#FFFFFF"/>
	<stop  offset="1" style="stop-color:#FFFFFF"/>
</linearGradient>
<path style="fill:url(#SVGID_00000106836436279066791210000001192564525995023018_);" d="M405.74,644.48V513.46h27.7v57.77h1.73
	l47.15-57.77h33.2l-48.62,58.66l49.2,72.35h-33.14l-35.89-53.86l-13.63,16.63v37.23H405.74z"/>
<g>
	
		<linearGradient id="SVGID_00000034047997861481025670000016214877421865235109_" gradientUnits="userSpaceOnUse" x1="1246.566" y1="576.6846" x2="1311.6632" y2="576.6846" gradientTransform="matrix(1 0 0 1 -785.4814 0)">
		<stop  offset="0" style="stop-color:#FFFFFF"/>
		<stop  offset="0.4735" style="stop-color:#FFFFFF"/>
		<stop  offset="1" style="stop-color:#FFFFFF"/>
	</linearGradient>
	<polygon style="fill:url(#SVGID_00000034047997861481025670000016214877421865235109_);" points="506.26,538.04 525.84,538.04 
		497.16,572.65 526.18,615.33 506.63,615.33 485.46,583.55 478.44,572.12 	"/>
</g>
<g>
	<path d="M1331.59,620.29c-0.36,2.98-1.61,5.41-3.75,7.32c-2.14,1.9-4.46,3.12-6.96,3.66c-2.5,0.54-4.79,0.27-6.87-0.8
		c-2.08-1.07-3.19-3.21-3.3-6.42c-0.6-13.68-0.89-27.87-0.89-42.57c0-14.7,0-29.3,0-43.82c-1.9-0.71-3.33-1.79-4.28-3.21
		c-0.95-1.43-1.52-3-1.7-4.73c-0.18-1.72,0.03-3.48,0.62-5.27c0.59-1.79,1.49-3.33,2.68-4.64c1.31-1.43,3.09-2.74,5.36-3.93
		c2.26-1.19,4.73-2.29,7.41-3.3c2.68-1.01,5.32-1.87,7.94-2.59c2.62-0.71,4.82-1.25,6.6-1.61c7.5-1.55,15.05-1.52,22.67,0.09
		c7.61,1.61,14.31,4.49,20.08,8.66c5.77,4.17,10.08,9.58,12.94,16.24c2.86,6.67,3.15,14.28,0.89,22.85
		c-0.71,2.38-1.61,4.76-2.68,7.14c-1.07,2.38-2.32,4.58-3.75,6.6c-2.03,3.1-4.4,5.83-7.14,8.21c-2.74,2.38-5.71,4.58-8.92,6.6
		c2.26,2.38,4.4,4.88,6.43,7.5c2.02,2.62,4.28,5,6.78,7.14c0.95,0.83,2.35,2.14,4.19,3.93c1.84,1.78,3.63,3.69,5.36,5.71
		c1.72,2.03,3.24,4.02,4.55,5.98c1.31,1.96,1.9,3.6,1.79,4.91c-0.12,2.26-0.74,4.31-1.88,6.16c-1.13,1.84-2.5,3.27-4.1,4.28
		c-1.61,1.01-3.36,1.52-5.27,1.52c-1.91,0-3.81-0.66-5.71-1.96c-2.14-1.67-4.17-3.63-6.07-5.89c-1.9-2.26-3.75-4.34-5.53-6.25
		c-3.93-4.28-7.76-8.6-11.51-12.94c-3.75-4.34-7.59-8.59-11.51-12.76c-2.38,0.48-4.79,0.8-7.23,0.98c-2.44,0.18-4.85,0.39-7.23,0.62
		v25.35V620.29z M1363.54,533.9c-4.76-2.86-9.97-4.46-15.62-4.82c-5.65-0.36-11.1,0.42-16.33,2.32v40.34
		c5.36-0.36,10.62-1.04,15.8-2.05c5.18-1.01,9.96-3.24,14.37-6.69c2.38-1.9,4.31-4.13,5.8-6.69c1.49-2.56,2.38-5.18,2.68-7.85
		c0.3-2.68-0.06-5.29-1.07-7.85C1368.15,538.04,1366.28,535.81,1363.54,533.9z"/>
	<path d="M1477.06,600.84c2.86-0.71,5.38-0.74,7.58-0.09c2.2,0.66,3.9,1.76,5.09,3.3c1.19,1.55,1.72,3.45,1.61,5.71
		c-0.12,2.26-1.13,4.64-3.03,7.14c-1.55,2.03-3.69,3.75-6.43,5.18c-2.74,1.43-5.3,2.56-7.67,3.39c-5.83,2.14-11.36,3.63-16.6,4.46
		c-5.24,0.83-10.15,0.83-14.73,0c-4.58-0.83-8.87-2.56-12.85-5.18c-3.99-2.62-7.71-6.31-11.16-11.07
		c-2.38-3.21-4.14-6.87-5.27-10.98c-1.13-4.11-1.76-8.3-1.87-12.58c-0.12-4.28,0.24-8.51,1.07-12.67c0.83-4.16,2.02-7.91,3.57-11.25
		c2.02-4.16,5.24-7.97,9.64-11.42c4.4-3.45,9.28-6.19,14.64-8.21c5.35-2.02,10.83-3.18,16.42-3.48c5.59-0.3,10.53,0.57,14.81,2.59
		c3.57,1.67,6.63,4.08,9.19,7.23c2.56,3.15,4.31,6.58,5.27,10.26c0.95,3.69,1.04,7.41,0.27,11.16c-0.78,3.75-2.71,7.17-5.8,10.26
		c-2.98,2.98-6.25,5.39-9.82,7.23c-3.57,1.85-7.26,3.45-11.07,4.82c-3.81,1.37-7.71,2.53-11.69,3.48
		c-3.99,0.95-7.83,2.02-11.51,3.21c2.5,2.86,5.35,4.67,8.57,5.44c3.21,0.78,6.57,0.92,10.08,0.45c3.51-0.47,7.05-1.46,10.62-2.95
		c3.57-1.49,6.9-3.12,9.99-4.91L1477.06,600.84z M1441.01,570.14c-2.74,1.55-4.76,3.48-6.07,5.8c-1.31,2.32-2.26,5.56-2.86,9.73
		c3.09-0.95,6.57-1.96,10.44-3.03c3.87-1.07,7.52-2.2,10.98-3.39c3.45-1.19,6.36-2.5,8.75-3.93c2.38-1.43,3.57-2.97,3.57-4.64
		c0-0.95-0.15-1.87-0.45-2.77c-0.3-0.89-0.92-1.52-1.88-1.87c-3.33-1.19-6.78-1.43-10.35-0.71s-6.54,1.73-8.92,3.03L1441.01,570.14z
		"/>
	<path d="M1711.95,610.83c1.07,1.55,1.7,3.36,1.88,5.44c0.18,2.08-0.06,4.05-0.71,5.89c-0.66,1.85-1.73,3.36-3.21,4.55
		c-1.49,1.19-3.42,1.72-5.8,1.61c-3.1-0.24-5.59-1.31-7.5-3.21c-1.9-1.9-3.69-4.04-5.35-6.43c-4.64,3.81-9.43,6.45-14.37,7.94
		c-4.94,1.49-9.79,1.81-14.55,0.98c-4.76-0.83-9.22-2.83-13.39-5.98c-4.17-3.15-7.68-7.41-10.53-12.76c-2.62-5-4.08-10.53-4.37-16.6
		c-0.3-6.07-0.39-11.84-0.27-17.31c0-1.9,0.06-3.78,0.18-5.62c0.12-1.84,0.24-3.78,0.36-5.8c0.12-1.55,0.18-3.06,0.18-4.55
		c0-1.49,0.09-2.88,0.27-4.19c0.18-1.31,0.54-2.62,1.07-3.93c0.54-1.31,1.34-2.56,2.41-3.75c1.43-1.54,3.15-2.47,5.18-2.77
		c2.02-0.3,3.96-0.09,5.8,0.62c1.84,0.71,3.45,1.82,4.82,3.3c1.37,1.49,2.11,3.3,2.23,5.44c0.24,6.07,0.09,12.2-0.45,18.38
		c-0.54,6.19-0.51,12.26,0.09,18.21c0.24,2.86,0.98,5.77,2.23,8.75c1.25,2.98,3.24,5.12,5.98,6.42c2.74,1.19,5.5,1.1,8.3-0.27
		c2.79-1.37,5.09-3,6.87-4.91c0.83-0.95,1.63-1.99,2.41-3.12c0.77-1.13,1.63-2.11,2.59-2.95c-0.48-4.16-0.77-8.33-0.89-12.49
		c-0.12-4.16-0.12-8.33,0-12.49c0-2.26,0.09-4.73,0.27-7.41s0.65-5.24,1.43-7.67c0.77-2.44,1.93-4.58,3.48-6.43
		c1.55-1.84,3.75-3,6.6-3.48c1.31-0.24,2.59-0.12,3.84,0.36c1.25,0.48,2.35,1.13,3.3,1.96c1.67,1.43,2.79,3.03,3.39,4.82
		c0.59,1.78,0.89,3.69,0.89,5.71c0,2.02-0.15,4.08-0.45,6.16c-0.3,2.08-0.51,4.02-0.62,5.8c-0.24,3.33-0.42,6.84-0.54,10.53
		c-0.12,3.69,0,7.38,0.36,11.07c0.36,3.69,1.04,7.26,2.05,10.71C1708.4,604.82,1709.92,607.98,1711.95,610.83z"/>
	<path d="M1801.54,616.9c0.95,3.45,0.77,6.31-0.54,8.57c-1.31,2.26-3.12,3.78-5.44,4.55c-2.32,0.77-4.85,0.68-7.58-0.27
		c-2.74-0.95-5.12-2.86-7.14-5.71c-3.33,2.5-6.58,4.25-9.73,5.26c-3.15,1.01-6.75,1.58-10.8,1.7c-6.07,0.24-11.48-0.45-16.24-2.05
		c-4.76-1.61-8.78-4.02-12.05-7.23c-3.27-3.21-5.68-7.23-7.23-12.05c-1.55-4.82-2.08-10.38-1.61-16.69
		c0.24-2.62,0.68-5.18,1.34-7.67c0.65-2.5,1.4-4.94,2.23-7.32c0.95-2.62,2.29-5.41,4.02-8.39c1.72-2.97,3.48-5.53,5.27-7.68
		c6.43-7.85,14.46-13.5,24.1-16.96c1.67-0.59,3.93-1.13,6.78-1.61c2.86-0.47,5.74-0.68,8.66-0.62c2.91,0.06,5.71,0.45,8.39,1.16
		c2.68,0.71,4.67,1.96,5.98,3.75c1.07,1.43,1.84,2.68,2.32,3.75c0.47,1.07,0.74,2.2,0.8,3.39c0.06,1.19,0.06,2.47,0,3.84
		c-0.06,1.37-0.09,3.07-0.09,5.09c0,3.33-0.03,6.58-0.09,9.73c-0.06,3.15-0.03,6.34,0.09,9.55c0,1.07,0,2.47,0,4.19
		c0,1.73,0.06,3.54,0.18,5.44c0.12,1.91,0.27,3.72,0.45,5.44c0.18,1.73,0.45,3.12,0.8,4.19L1801.54,616.9z M1763.71,608.87
		c1.31-0.83,2.79-1.75,4.46-2.77c1.67-1.01,3.15-2.17,4.46-3.48c-1.07-6.3-1.7-12.61-1.87-18.92c-0.18-6.3-0.15-12.67,0.09-19.1
		c-5.35,0.95-10.17,3.27-14.46,6.96c-4.28,3.69-7.26,8.03-8.92,13.03c-0.71,2.03-1.31,4.11-1.79,6.25
		c-0.48,2.14-0.66,4.22-0.54,6.25c0.12,2.74,0.83,5.03,2.14,6.87c1.31,1.85,2.88,3.24,4.73,4.19c1.84,0.95,3.81,1.49,5.89,1.61
		C1759.98,609.88,1761.92,609.58,1763.71,608.87z"/>
	<path d="M1815.64,551.4c0.83-2.86,2.17-5.03,4.02-6.51c1.84-1.49,3.81-2.35,5.89-2.59c2.08-0.24,4.08,0.12,5.98,1.07
		c1.9,0.95,3.39,2.44,4.46,4.46c1.31-0.71,2.62-1.37,3.93-1.96c1.31-0.59,2.79-1.13,4.46-1.61c7.61-2.02,14.37-1.87,20.26,0.45
		c5.89,2.32,10.8,5.89,14.73,10.71s6.72,10.47,8.39,16.96c1.67,6.49,2.05,12.97,1.16,19.46c-0.89,6.49-3.18,12.56-6.87,18.21
		c-3.69,5.65-8.99,10.03-15.88,13.12c-4.52,2.02-9.25,3.3-14.19,3.84c-4.94,0.54-9.85,0.62-14.73,0.27c0,0.12,0.03,1.07,0.09,2.86
		c0.06,1.79,0.09,4.04,0.09,6.78c0,2.74,0,5.71,0,8.92s-0.09,6.31-0.27,9.28c-0.18,2.97-0.42,5.62-0.71,7.94
		c-0.3,2.32-0.74,3.9-1.34,4.73c-1.55,2.26-3.45,3.69-5.71,4.28c-2.26,0.59-4.4,0.51-6.43-0.27c-2.02-0.78-3.78-2.08-5.26-3.93
		c-1.49-1.85-2.23-4.08-2.23-6.69v-108.7L1815.64,551.4z M1838.49,574.6c-0.36,0.6-0.54,0.86-0.54,0.8c0-0.06-0.24,0.15-0.71,0.62
		v29.45c2.38,0.36,4.76,0.54,7.14,0.54c2.38,0,4.88-0.36,7.5-1.07c5.35-1.31,9.58-3.9,12.67-7.76c3.09-3.87,4.28-8.66,3.57-14.37
		c-0.36-2.38-1.04-4.85-2.05-7.41c-1.01-2.56-2.35-4.73-4.02-6.52c-1.67-1.79-3.63-3.03-5.89-3.75c-2.26-0.71-4.82-0.47-7.67,0.71
		c-2.03,0.83-3.84,2.08-5.44,3.75C1841.43,571.27,1839.92,572.93,1838.49,574.6z"/>
	<path d="M1904.53,551.4c0.83-2.86,2.17-5.03,4.02-6.51c1.84-1.49,3.81-2.35,5.89-2.59c2.08-0.24,4.08,0.12,5.98,1.07
		c1.9,0.95,3.39,2.44,4.46,4.46c1.31-0.71,2.62-1.37,3.93-1.96c1.31-0.59,2.79-1.13,4.46-1.61c7.61-2.02,14.37-1.87,20.26,0.45
		c5.89,2.32,10.8,5.89,14.73,10.71s6.72,10.47,8.39,16.96c1.67,6.49,2.05,12.97,1.16,19.46c-0.89,6.49-3.18,12.56-6.87,18.21
		c-3.69,5.65-8.99,10.03-15.88,13.12c-4.52,2.02-9.25,3.3-14.19,3.84c-4.94,0.54-9.85,0.62-14.73,0.27c0,0.12,0.03,1.07,0.09,2.86
		c0.06,1.79,0.09,4.04,0.09,6.78c0,2.74,0,5.71,0,8.92s-0.09,6.31-0.27,9.28c-0.18,2.97-0.42,5.62-0.71,7.94
		c-0.3,2.32-0.74,3.9-1.34,4.73c-1.55,2.26-3.45,3.69-5.71,4.28c-2.26,0.59-4.4,0.51-6.43-0.27c-2.02-0.78-3.78-2.08-5.26-3.93
		c-1.49-1.85-2.23-4.08-2.23-6.69v-108.7L1904.53,551.4z M1927.37,574.6c-0.36,0.6-0.54,0.86-0.54,0.8c0-0.06-0.24,0.15-0.71,0.62
		v29.45c2.38,0.36,4.76,0.54,7.14,0.54c2.38,0,4.88-0.36,7.5-1.07c5.35-1.31,9.58-3.9,12.67-7.76c3.09-3.87,4.28-8.66,3.57-14.37
		c-0.36-2.38-1.04-4.85-2.05-7.41c-1.01-2.56-2.35-4.73-4.02-6.52c-1.67-1.79-3.63-3.03-5.89-3.75c-2.26-0.71-4.82-0.47-7.67,0.71
		c-2.03,0.83-3.84,2.08-5.44,3.75C1930.32,571.27,1928.8,572.93,1927.37,574.6z"/>
</g>
<path class="st3" d="M1505.74,644.48V513.46h27.7v57.77h1.73l47.15-57.77h33.2l-48.62,58.66l49.2,72.35h-33.14l-35.89-53.86
	l-13.63,16.63v37.23H1505.74z"/>
<g>
	<polygon class="st3" points="1606.26,538.04 1625.84,538.04 1597.16,572.65 1626.18,615.33 1606.63,615.33 1585.46,583.55 
		1578.44,572.12 	"/>
</g>
</svg>
